<?xml version="1.0" encoding="UTF-8" standalone="no"?><svg xmlns="http://www.w3.org/2000/svg" viewBox="0 0 24 24" width="24px" height="24px" baseProfile="basic">
  <path fill="#000000" d="M20.4,5.6L7.6,2.4C7.466,2.366,7.331,2.35,7.199,2.35c-0.739,0-1.411,0.5-1.599,1.25L2.4,16.4 c-0.221,0.884,0.316,1.779,1.2,2l12.8,3.2c0.134,0.034,0.269,0.05,0.401,0.05c0.739,0,1.411-0.5,1.599-1.25l3.2-12.8 C21.821,6.716,21.284,5.821,20.4,5.6z M9.155,12.882l0.749-3c0.114-0.454,0.521-0.758,0.969-0.758c0.08,0,0.162,0.01,0.243,0.03 l3,0.75c0.536,0.134,0.861,0.677,0.728,1.213l-0.749,2.999c-0.114,0.454-0.521,0.758-0.969,0.758c-0.08,0-0.162-0.01-0.243-0.03 l-3-0.75C9.347,13.961,9.021,13.418,9.155,12.882z" />
</svg>